<?xml version="1.0" encoding="UTF-8"?>
<svg version="1.1" viewBox="0 0 64 64" xmlns="http://www.w3.org/2000/svg" xmlns:xlink="http://www.w3.org/1999/xlink">
 <defs>
  <filter id="h">
   <feGaussianBlur stdDeviation="0.22848791"/>
  </filter>
  <linearGradient id="g" x1="-652.47" x2="-679.23" y1="149.51" y2="538.08" gradientUnits="userSpaceOnUse">
   <stop stop-color="#fff" offset="0"/>
   <stop stop-color="#0e232e" stop-opacity="0" offset="1"/>
  </linearGradient>
  <linearGradient id="d" x1="44.99" x2="42.709" y1="1021.1" y2="1021.6" gradientTransform="matrix(-1 0 0 1.0001 61.181 .10813)" gradientUnits="userSpaceOnUse" xlink:href="#a"/>
  <linearGradient id="e" x1="44.99" x2="42.709" y1="1021.1" y2="1021.6" gradientTransform="matrix(1 0 0 1.0001 9.4929e-7 -.081988)" gradientUnits="userSpaceOnUse" xlink:href="#a"/>
  <linearGradient id="f" x1="15.538" x2="18.807" y1="36.149" y2="52.169" gradientUnits="userSpaceOnUse">
   <stop stop-color="#fff" offset="0"/>
   <stop stop-color="#fff" stop-opacity="0" offset="1"/>
  </linearGradient>
  <linearGradient id="a">
   <stop stop-color="#005c94" offset="0"/>
   <stop stop-color="#0084c8" offset="1"/>
  </linearGradient>
  <radialGradient id="c" cx="28.198" cy="1020.6" r="7.568" gradientTransform="matrix(-.65311 -1.2393 1.9008 -1.0019 -1893.3 2077)" gradientUnits="userSpaceOnUse">
   <stop stop-color="#0084c8" offset="0"/>
   <stop stop-color="#19aeff" offset="1"/>
  </radialGradient>
  <radialGradient id="b" cx="31.937" cy="1020.8" r="7.7692" gradientTransform="matrix(.15496 -.9625 2.0664 .33273 -2082.3 711.52)" gradientUnits="userSpaceOnUse">
   <stop stop-color="#005c94" offset="0"/>
   <stop stop-color="#0084c8" offset="1"/>
  </radialGradient>
 </defs>
 <g transform="translate(0 -988.36)">
  <path transform="matrix(.14545 0 0 .15661 123.01 958.7)" d="m-405.71 393.79a220 204.29 0 1 1 -440 0 220 204.29 0 1 1 440 0z" fill="url(#g)" opacity=".595" stroke-width="0"/>
  <g stroke="#7fafd3">
   <path transform="matrix(1 0 0 1.0001 9.4929e-7 -.081988)" d="m30.344 1004.5c-1.1485 0.04-2.2762 0.2603-2.8125 0.6875-0.26801 0.069-5.366 1.4103-7.375 3.4688l-0.0625-0.094c-0.0533 0.1084-0.10496 0.2056-0.15625 0.3125-0.76477 0.9136-1.3027 2.6782-1.6562 4.125-0.49954 1.5107-0.84739 2.9269-1.2188 4.3438-0.55468 1.614-1.2206 3.7201-1.375 5.1875l-0.2812 1.0312 0.1562 1.25c0.0091 1.7239 0.23785 3.4458 0.65625 5.0938 0.20279 0.7987 0.59487 1.7601 1.0312 2.75 0.49988 1.5234 1.1392 2.9791 1.9062 3.9062 0.31713 0.5888 0.53125 1 0.53125 1l0.4688-0.1562c0.28084 0.132 0.56615 0.1882 0.875 0.1562 0.30766-0.032 0.45005-0.271 0.5-0.625l1.25-0.4062s-1.4268-4.3539-1.75-6.625c-0.24157-1.6977-0.13819-3.4381-0.125-5.1563 8e-3 -1.0806-0.13548-2.2077 0.125-3.25 0.40217-1.609 2.1562-4.4062 2.1562-4.4062l0.4062 3.5312-0.5312 4.7188-0.1562 4.5625c0.57447 0.4736 1.1766 0.9232 1.8125 1.3125 0.38104 0.4785 0.86561 0.7815 1.5625 0.75 1.0987 0.4059 2.3529 0.6124 3.875 0.4375l0.3438-20.375h0.125l-0.3125 20.375c1.404 0.2073 2.6533 0.1048 3.8125-0.1875-0.0024 0.04 0.0025 0.085 0 0.125 0.30972-0.1325 0.62438-0.2747 0.9375-0.4063 0.1408-0.051 0.269-0.1 0.40625-0.1562 0.03609-0.016 0.05793-0.047 0.09375-0.062 1.1819-0.5018 2.2444-1.1847 3.1875-1.9688l-0.5312-4.7187-0.5312-4.6875 0.4062-3.5313s1.7228 2.7972 2.125 4.4063c0.2605 1.0422 0.14825 2.1693 0.15625 3.25 0.0132 1.7182 0.08532 3.4273-0.15625 5.125-0.32315 2.271-1.75 6.625-1.75 6.625l3.0938 1.0312s2.8022-4.9079 3.5-7.6562c0.22968-0.9047 0.39189-1.8101 0.5-2.75 0.0096-0.057 0.03125-0.1577 0.03125-0.1875l0.4062-2.938-0.4375-1.6563c-0.17306-1.3566-0.7425-3.2122-1.25-4.7187-0.37581-1.4359-0.76029-2.8954-1.2812-4.4375-0.35285-1.4927-0.90329-3.3963-1.7188-4.3438-0.01838-0.021-0.04342-0.041-0.0625-0.062l0.0625-0.125h-0.1875c-2.0626-2.1132-7.4688-3.5-7.4688-3.5l-0.125 0.1563c-0.51451-0.3917-1.8749-0.5775-3.1875-0.5313z" fill="#fff" filter="url(#h)" stroke-width="0"/>
   <g stroke-width=".133">
    <path d="m38.752 1029.8c-2.1591 1.7951-4.8822 3.1773-8.452 2.6501-0.19926-8.5705-0.08309-16.896 1.2262-24.293l2.1277-3.2391s5.7359 1.46 7.647 3.6807c1.4088 1.637 2.1466 6.331 2.1466 6.331s1.8773 4.8021 2.1465 7.3615c0.25725 2.4454 0.0654 4.9901-0.53663 7.3615-0.69783 2.7485-3.4881 7.656-3.4881 7.656l-3.0857-1.0307s1.4209-4.3541 1.7441-6.6253c0.24158-1.6978 0.14736-3.4347 0.13416-5.1531-8e-3 -1.0808 0.12634-2.1967-0.13416-3.239-0.40216-1.6092-2.1465-4.417-2.1465-4.417l-0.4025 3.5336 0.5366 4.7114z" fill="url(#b)"/>
    <path d="m22.922 1029.9c1.8882 1.5567 3.9451 2.8821 7.2446 2.5028 0.71694-8.1548 0.57206-16.118-0.2312-23.935l-2.3178-3.3025s-5.7359 1.46-7.647 3.6808c-1.4088 1.6369-2.1465 6.3309-2.1465 6.3309s-1.8773 4.8021-2.1465 7.3615c-0.25724 2.4455-0.0654 4.9902 0.53664 7.3616 0.69783 2.7485 3.4881 7.6559 3.4881 7.6559l3.0856-1.0305s-1.4209-4.3542-1.7441-6.6254c-0.24158-1.6979-0.14734-3.4348-0.13415-5.1531 8e-3 -1.0807-0.12633-2.1967 0.13415-3.2391 0.40218-1.6091 2.1466-4.4169 2.1466-4.4169l0.4025 3.5335-0.5366 4.7114z" fill="url(#c)"/>
    <path d="m30.568 1009.9c1.4198-0.037 3.1056-2.4373 3.354-3.4926 0.2483-1.0553 0.62656-0.6135-0.40247-1.397-1.029-0.7834-5.3585-0.7625-6.1713 0.3492-0.81278 1.1119-0.18255 0.868 0.26832 1.7464 0.45087 0.8782 1.5317 2.8309 2.9515 2.794z" fill="#0e232e"/>
    <path d="m39.512 1036.6s3.3954-7.3329 3.5332-11.266c0.15969-4.5588-3.1713-13.312-3.1713-13.312l1.4272-3.3248c1.9739 2.1988 2.4422 6.4947 3.2198 9.4227 0 0 1.3581 3.6696 1.4758 5.5948 0.06042 0.9887-0.40249 2.9446-0.40249 2.9446 0.7007 0.3294-2.7405 11.274-4.0287 10.767-0.69213-0.2723-2.0535-0.8256-2.0535-0.8256z" fill="url(#e)"/>
   </g>
  </g>
  <g fill="#fff">
   <g stroke-width="0">
    <path d="m26.404 1031.3c-0.26587-5.9732 0.27428-13.897-2.4133-13.674l-0.5461 6.8263v4.8503c0.82245 1.055 1.4155 2.2323 2.9594 1.9976z" opacity=".302"/>
    <path d="m36.275 1031.8c0.16138-5.8981-0.27812-13.904 1.3533-13.684l0.3315 6.7407v4.7893c-0.02482 1.2159-0.92216 1.3979-1.6847 2.1538z" opacity=".302"/>
   </g>
   <g stroke="#7fafd3" stroke-linecap="round" stroke-linejoin="round" stroke-width=".03">
    <path d="m23.297 1012.2c2.5297 0.5193 4.7138 0.3521 6.8049 0 0.0269 0 0.0505 0.01 0.0505 0.013v0.3643c0 0.01-0.0244 0.01-0.0505 0.013-1.8078 0.392-4.113 0.3606-6.8049 0-0.0272 0-0.0505-0.01-0.0505-0.013v-0.3643c0-0.01 0.0242-0.018 0.0505-0.013z" opacity=".595"/>
    <path d="m23.297 1013c2.5297 0.5194 4.7138 0.3522 6.8049 0 0.0269 0 0.0505 0.01 0.0505 0.013v0.3644c0 0.01-0.0244 0.01-0.0505 0.013-1.8078 0.392-4.113 0.3607-6.8049 0-0.0272 0-0.0505-0.01-0.0505-0.013v-0.3644c0-0.01 0.0242-0.018 0.0505-0.013z" opacity=".595"/>
    <path d="m23.297 1013.8c2.5297 0.5193 4.7138 0.3522 6.8049 0 0.0269 0 0.0505 0.01 0.0505 0.013v0.3644c0 0.01-0.0244 0.01-0.0505 0.013-1.8078 0.392-4.113 0.3607-6.8049 0-0.0272 0-0.0505-0.01-0.0505-0.013v-0.3644c0-0.01 0.0242-0.018 0.0505-0.013z" opacity=".595"/>
    <path d="m31.237 1012.2c2.5297 0.5193 4.7138 0.3521 6.8049 0 0.0269 0 0.0505 0.01 0.0505 0.013v0.3643c0 0.01-0.0244 0.01-0.0505 0.013-1.8078 0.392-4.113 0.3606-6.8049 0-0.0272 0-0.0505-0.01-0.0505-0.013v-0.3643c0-0.01 0.0242-0.018 0.0505-0.013z" opacity=".595"/>
    <path d="m31.237 1013c2.5297 0.5194 4.7138 0.3522 6.8049 0 0.0269 0 0.0505 0.01 0.0505 0.013v0.3644c0 0.01-0.0244 0.01-0.0505 0.013-1.8078 0.392-4.113 0.3607-6.8049 0-0.0272 0-0.0505-0.01-0.0505-0.013v-0.3644c0-0.01 0.0242-0.018 0.0505-0.013z" opacity=".595"/>
    <path d="m31.237 1013.8c2.5297 0.5193 4.7138 0.3522 6.8049 0 0.0269 0 0.0505 0.01 0.0505 0.013v0.3644c0 0.01-0.0244 0.01-0.0505 0.013-1.8078 0.392-4.113 0.3607-6.8049 0-0.0272 0-0.0505-0.01-0.0505-0.013v-0.3644c0-0.01 0.0242-0.018 0.0505-0.013z" opacity=".595"/>
   </g>
  </g>
  <g stroke="#d5c8c8">
   <path d="m41.316 1008.4-1.5208 3.6756c-3.0839 0.6926-6.1678 0.2831-9.2517 0-2.0767 0.6392-5.1995 0.4938-8.618 0.1267l-1.6476-3.1686" fill="none" stroke-width=".1"/>
   <path transform="matrix(.65905 0 0 1.0285 11.812 954.47)" d="m59.818 46.131a29.465 13.18 0 1 1 -58.931 0 29.465 13.18 0 1 1 58.931 0z" fill="url(#f)" opacity=".595" stroke-width="0"/>
  </g>
  <path d="m21.669 1036.8s-3.4609-7.3312-3.5332-11.266c-0.08531-4.6436 3.6782-13.439 3.6782-13.439l-1.8708-3.3248c-1.8094 3.6795-2.5052 6.6246-3.2832 9.5494 0 0-1.3581 3.6696-1.4758 5.5948-0.06042 0.9888 0.40249 2.9446 0.40249 2.9446-0.7007 0.3294 2.8039 11.21 4.0921 10.703 0.69213-0.2723 1.9901-0.7622 1.9901-0.7622z" fill="url(#d)" stroke="#7fafd3" stroke-width=".133"/>
  <path d="m30.226 1032.3c0.35894-1.0614 0.35701-22.407-0.31684-22.497h1.5208c-1.2213 6.9597-0.88491 14.944-1.204 22.497z" fill="#364e59" stroke="#1c36d2" stroke-dasharray="0.30001513,0.30001513" stroke-width=".3"/>
 </g>
</svg>
