<?xml version="1.0" encoding="UTF-8"?>
<svg viewBox="0 0 640 480" xmlns="http://www.w3.org/2000/svg">
 <g stroke-dasharray="null" stroke-linejoin="null">
  <g stroke-linecap="null">
   <path d="m228.33 64.685l73.333-1.0183 2.3334 24.333-75.667-5.4064v-17.909z" fill="#7f3f00" stroke="#bf5f00" stroke-width="3"/>
   <g stroke-width="5">
    <path d="m220.4 75.2l86-0.4v100.8l-79.2-4-6.8-96.4z" fill="#7f3f00" stroke="#7f3f00"/>
    <path d="m167 80c22.333-6 42.667-6 61 0l38 66 37-68c20.333-7 40.667-5 61 0 51 70 79 149 110 226-7.6667 9-18.333 16-31 17-40.333-78.333-66.667-141.67-103-178-4 90.667 10.666 273.67 25.666 334.33-60.333 13-116.33 9.3333-180.67-0.66666 10.667-60 24.333-241.67 12-331.67-27.333 37.333-51.667 101.67-82 184-11.333 1-21.667-3-31-12 16.667-82 43.333-161 83-237z" stroke="#000"/>
    <path d="m166.09 80.284c21.817-5.8636 42.013-6.8636 59.923-1l37.788 66.499 39.144-67.787c19.863-6.8408 39.065-5.2158 58.928-0.32951 49.821 68.408 79.845 150.28 110.13 225.53-7.4894 8.7954-16.909 15.632-29.283 16.61-39.401-76.552-70.135-141.44-105.63-176.95-3.9075 88.605 11.669 274.16 26.322 333.44-58.938 12.704-118.32 8.1098-181.16-1.6629 10.42-58.636 25.196-242.87 13.148-330.83-26.701 36.484-52.477 103.36-82.109 183.82-11.071 0.9773-20.168-3.928-29.286-12.723 16.281-80.135 43.339-160.35 82.088-234.62z" fill="#bf5f00" stroke="#bf5f00"/>
    <path d="m165.09 80.737c20.15-5.5302 35.347-8.5302 54.256-5.6667l44.122 79.166 42.811-79.453c19.863-2.8408 35.731-1.8825 55.594 3.0038 49.821 68.408 76.179 142.94 106.46 218.19-7.489 8.795-17.576 17.299-29.95 18.276-39.401-76.552-66.135-135.11-101.63-170.62-3.908 88.605 11.669 269.16 24.989 328.44-58.938 12.704-118.98 7.1095-181.83-2.6635 10.42-58.635 26.53-236.87 14.482-324.83-26.702 36.484-50.478 98.692-80.11 179.15-11.071 0.97699-20.834-4.262-29.952-13.057 16.281-80.135 42.006-155.68 80.755-229.95z" fill="#7f3f00" fill-opacity=".9" stroke="#7f3f00" stroke-opacity=".9"/>
   </g>
   <g fill="none" stroke-width="null">
    <path d="m468 105.5"/>
    <path d="m468.17 105.67"/>
   </g>
  </g>
  <g stroke="#191919">
   <circle cx="257.33" cy="225.67" r="4.1231" fill="#333" stroke-linecap="null"/>
   <g fill="none" stroke-width="null">
    <polyline points="256.67 224.83 256.67 225"/>
    <polyline points="258.67 225 258.83 225"/>
    <polyline points="258.67 227.17 258.83 227.17"/>
    <polyline points="256.5 227.17 256.67 227.17"/>
   </g>
   <circle cx="259.07" cy="262.87" r="4.1231" fill="#333" stroke-linecap="null"/>
   <g fill="none" stroke-width="null">
    <polyline points="258.4 262.03 258.4 262.2"/>
    <polyline points="260.4 262.2 260.57 262.2"/>
    <polyline points="260.4 264.37 260.57 264.37"/>
    <polyline points="258.23 264.37 258.4 264.37"/>
   </g>
   <circle cx="256.93" cy="183.93" r="4.1231" fill="#333" stroke-linecap="null"/>
   <g fill="none" stroke-width="null">
    <polyline points="256.27 183.1 256.27 183.27"/>
    <polyline points="258.27 183.27 258.43 183.27"/>
    <polyline points="258.27 185.43 258.43 185.43"/>
    <polyline points="256.1 185.43 256.27 185.43"/>
   </g>
   <circle cx="258.8" cy="306.87" r="4.1231" fill="#333" stroke-linecap="null"/>
   <g fill="none" stroke-width="null">
    <polyline points="258.13 306.03 258.13 306.2"/>
    <polyline points="260.13 306.2 260.3 306.2"/>
    <polyline points="260.13 308.37 260.3 308.37"/>
    <polyline points="257.97 308.37 258.13 308.37"/>
   </g>
   <circle cx="260.27" cy="351" r="4.1231" fill="#333" stroke-linecap="null"/>
   <g fill="none" stroke-width="null">
    <polyline points="259.6 350.17 259.6 350.33"/>
    <polyline points="261.6 350.33 261.77 350.33"/>
    <polyline points="261.6 352.5 261.77 352.5"/>
    <polyline points="259.43 352.5 259.6 352.5"/>
   </g>
   <circle cx="260.93" cy="396.87" r="4.1231" fill="#333" stroke-linecap="null"/>
   <g fill="none" stroke-width="null">
    <polyline points="260.27 396.03 260.27 396.2"/>
    <polyline points="262.27 396.2 262.43 396.2"/>
    <polyline points="262.27 398.37 262.43 398.37"/>
    <polyline points="260.1 398.37 260.27 398.37"/>
   </g>
   <circle cx="260.93" cy="437.53" r="4.1231" fill="#333" stroke-linecap="null"/>
   <g fill="none" stroke-width="null">
    <polyline points="260.27 436.7 260.27 436.87"/>
    <polyline points="262.27 436.87 262.43 436.87"/>
    <polyline points="262.27 439.03 262.43 439.03"/>
    <polyline points="260.1 439.03 260.27 439.03"/>
   </g>
  </g>
  <g stroke-linecap="null">
   <g stroke-width="3">
    <g stroke="#000">
     <path d="m317.19 74.889l-12.699-8.8889-48.822 98.133 46.282 3.2-9.3128-33.067 55.031-31.644-30.478-27.733z"/>
     <path d="m210.55 74.5l15.092-8.3333 58.02 92-55.002 3 11.068-31-65.399-29.667 36.221-26z"/>
    </g>
    <g fill="#7f3f00" stroke="#bf5f00">
     <path d="m212.33 73.333l15-8.3333 57.667 92-54.667 3 11-31-65-29.667 36-26z"/>
     <path d="m316.42 72.947l-13.16-8.9474-50.591 98.779 47.959 3.2211-9.6503-33.284 57.024-31.853-31.583-27.916z"/>
    </g>
   </g>
   <path d="m267.9 127.13l-23.4 48.588-0.1333 309.48h4l1e-4 -309.26 21.933-47.232" stroke="#000"/>
   <path d="m268.63 127.27l-23.099 48.497-0.1316 308.9h3.9486l1e-4 -308.69 21.652-47.144" fill="#bf5f00" stroke="#bf5f00"/>
  </g>
 </g>
</svg>
